<?xml version="1.0" encoding="UTF-8" standalone="no"?>
<svg
   xmlns:dc="http:

  xmlns:cc="http:

  xmlns:rdf="http:

  xmlns:svg="http:

  xmlns="http:

  xmlns:sodipodi="http:

  xmlns:inkscape="http:

  viewBox="0 0 88 88"
   version="1.1"
   x="0px"
   y="0px"
   id="svg16"
   sodipodi:docname="add_tab.svg"
   width="88"
   height="88"
   inkscape:version="0.92.4 (5da689c313, 2019-01-14)">
  <metadata
     id="metadata22">
    <rdf:RDF>
      <cc:Work
         rdf:about="">
        <dc:format>image/svg+xml</dc:format>
        <dc:type
           rdf:resource="http:

       <dc:title>Duplicate Add Mono</dc:title>
      </cc:Work>
    </rdf:RDF>
  </metadata>
  <defs
     id="defs20" />
  <sodipodi:namedview
     pagecolor="#ffffff"
     bordercolor="#666666"
     borderopacity="1"
     objecttolerance="10"
     gridtolerance="10"
     guidetolerance="10"
     inkscape:pageopacity="0"
     inkscape:pageshadow="2"
     inkscape:window-width="1920"
     inkscape:window-height="1051"
     id="namedview18"
     showgrid="false"
     fit-margin-top="0"
     fit-margin-left="0"
     fit-margin-right="0"
     fit-margin-bottom="0"
     inkscape:zoom="1.888"
     inkscape:cx="-20.618644"
     inkscape:cy="31.5"
     inkscape:window-x="1"
     inkscape:window-y="0"
     inkscape:window-maximized="1"
     inkscape:current-layer="svg16" />
  <title
     id="title2">Duplicate Add Mono</title>
  <desc
     id="desc4">Created with Sketch.</desc>
  <g
     id="g10"
     style="fill:none;fill-rule:evenodd;stroke:none;stroke-width:1"
     transform="translate(-6,-6)">
    <g
       id="g8"
       style="fill:#000000">
      <path
         d="m 45.5,14 h 33 7.5 v 7.5 33 7.5 h -8 v 8 h 8 c 4.418278,0 8,-3.590712 8,-8 V 54.5 21.5 14 C 94,9.581722 90.409288,6 86,6 H 78.5 45.5 38 c -4.418278,0 -8,3.5907123 -8,8 v 8 h 8 v -8 h 7.5 z M 6,38.008515 C 6,33.585535 9.578055,30 14.008515,30 h 47.98297 C 66.414466,30 70,33.578055 70,38.008515 v 47.98297 C 70,90.414466 66.421945,94 61.991485,94 H 14.008515 C 9.5855345,94 6,90.421945 6,85.991485 Z M 14,38 H 62 V 86 H 14 Z m 28,8 H 34 V 58 H 22 v 8 h 12 v 12 h 8 V 66 H 54 V 58 H 42 Z"
         id="path6"
         inkscape:connector-curvature="0" />
    </g>
  </g>
</svg>
